<svg xmlns="http://www.w3.org/2000/svg" width="137.443" height="270.012" viewBox="0 0 137.443 270.012">
  <defs>
    <style>
      .cls-1 {
        opacity: 0.5;
      }

      .cls-2 {
        fill: #5abd8c;
      }

      .cls-3 {
        fill: none;
        stroke: #fff;
        stroke-miterlimit: 10;
      }
    </style>
  </defs>
  <g id="Group_95" data-name="Group 95" transform="translate(-314.29 -94.457)">
    <g id="Group_39" data-name="Group 39" class="cls-1" transform="translate(314.29 121.38) rotate(-17)">
      <path id="Path_154" data-name="Path 154" class="cls-2" d="M187.775,248.625s-51.484-26.053-29.482-84.247S100.636,86,100.636,86s-15.6,56.663,13.712,94.4S154.975,280.777,187.775,248.625Z" transform="translate(-96.488 -86)"/>
      <path id="Path_155" data-name="Path 155" class="cls-3" d="M109.8,86a342.087,342.087,0,0,1,32.682,86.6c10.961,48.959,28.805,89.361,54.192,75.106" transform="translate(-105.651 -86)"/>
    </g>
    <g id="Group_40" data-name="Group 40" class="cls-1" transform="translate(339.188 247.902) rotate(-17)">
      <path id="Path_156" data-name="Path 156" class="cls-2" d="M305.47,372.623s-20.587-29.553,6.725-58.041-9.92-62.273-9.92-62.273-23.482,29.332-17.876,59.739S279.338,382.7,305.47,372.623Z" transform="translate(-283.534 -252.31)"/>
      <path id="Path_157" data-name="Path 157" class="cls-3" d="M320.211,252.31a245.845,245.845,0,0,1-5.641,60.309c-7.2,32.037-8.455,60.889,8.935,59.39" transform="translate(-301.467 -252.31)"/>
    </g>
  </g>
</svg>
